<svg width="16" height="16" viewBox="0 0 16 16" fill="none" xmlns="http://www.w3.org/2000/svg">
<path d="M12.0001 1.33334H4.00008C3.2637 1.33334 2.66675 1.9303 2.66675 2.66668V13.3333C2.66675 14.0697 3.2637 14.6667 4.00008 14.6667H12.0001C12.7365 14.6667 13.3334 14.0697 13.3334 13.3333V2.66668C13.3334 1.9303 12.7365 1.33334 12.0001 1.33334Z" stroke="#004F5F" stroke-linecap="round" stroke-linejoin="round"/>
<path d="M6 14.6667V12H10V14.6667" stroke="#004F5F" stroke-linecap="round" stroke-linejoin="round"/>
<path d="M5.33325 4H5.33992" stroke="#004F5F" stroke-linecap="round" stroke-linejoin="round"/>
<path d="M10.6667 4H10.6734" stroke="#004F5F" stroke-linecap="round" stroke-linejoin="round"/>
<path d="M8 4H8.00667" stroke="#004F5F" stroke-linecap="round" stroke-linejoin="round"/>
<path d="M8 6.66666H8.00667" stroke="#004F5F" stroke-linecap="round" stroke-linejoin="round"/>
<path d="M8 9.33334H8.00667" stroke="#004F5F" stroke-linecap="round" stroke-linejoin="round"/>
<path d="M10.6667 6.66666H10.6734" stroke="#004F5F" stroke-linecap="round" stroke-linejoin="round"/>
<path d="M10.6667 9.33334H10.6734" stroke="#004F5F" stroke-linecap="round" stroke-linejoin="round"/>
<path d="M5.33325 6.66666H5.33992" stroke="#004F5F" stroke-linecap="round" stroke-linejoin="round"/>
<path d="M5.33325 9.33334H5.33992" stroke="#004F5F" stroke-linecap="round" stroke-linejoin="round"/>
</svg>
