<svg width="14" height="14" viewBox="0 0 14 14" fill="none" xmlns="http://www.w3.org/2000/svg">
<g clip-path="url(#clip0_0_226)">
<path d="M11.0833 0.583237H2.91667C2.1434 0.584163 1.40208 0.891751 0.855295 1.43853C0.308514 1.98531 0.00092625 2.72664 0 3.4999L0 10.4999C0.00092625 11.2732 0.308514 12.0145 0.855295 12.5613C1.40208 13.1081 2.1434 13.4156 2.91667 13.4166H11.0833C11.8566 13.4156 12.5979 13.1081 13.1447 12.5613C13.6915 12.0145 13.9991 11.2732 14 10.4999V3.4999C13.9991 2.72664 13.6915 1.98531 13.1447 1.43853C12.5979 0.891751 11.8566 0.584163 11.0833 0.583237ZM2.91667 1.7499H11.0833C11.4326 1.75059 11.7737 1.85579 12.0627 2.05196C12.3517 2.24812 12.5754 2.52629 12.705 2.85065L8.23783 7.3184C7.90908 7.64584 7.46399 7.82968 7 7.82968C6.53601 7.82968 6.09092 7.64584 5.76217 7.3184L1.295 2.85065C1.42459 2.52629 1.64827 2.24812 1.93728 2.05196C2.22628 1.85579 2.56738 1.75059 2.91667 1.7499ZM11.0833 12.2499H2.91667C2.45254 12.2499 2.00742 12.0655 1.67923 11.7373C1.35104 11.4092 1.16667 10.964 1.16667 10.4999V4.3749L4.93733 8.14324C5.48487 8.68939 6.22665 8.99609 7 8.99609C7.77335 8.99609 8.51513 8.68939 9.06267 8.14324L12.8333 4.3749V10.4999C12.8333 10.964 12.649 11.4092 12.3208 11.7373C11.9926 12.0655 11.5475 12.2499 11.0833 12.2499Z" fill="#637684"/>
</g>
<defs>
<clipPath id="clip0_0_226">
<rect width="14" height="14" fill="white"/>
</clipPath>
</defs>
</svg>
