<svg width="12" height="12" viewBox="0 0 12 12" fill="none" xmlns="http://www.w3.org/2000/svg">
<path d="M7.6999 4.94L5.4049 2.645C5.31122 2.55187 5.18449 2.4996 5.0524 2.4996C4.92031 2.4996 4.79358 2.55187 4.6999 2.645C4.65304 2.69148 4.61584 2.74678 4.59046 2.80771C4.56507 2.86864 4.552 2.93399 4.552 3C4.552 3.06601 4.56507 3.13136 4.59046 3.19229C4.61584 3.25322 4.65304 3.30852 4.6999 3.355L6.9999 5.645C7.04677 5.69148 7.08396 5.74678 7.10935 5.80771C7.13473 5.86864 7.1478 5.93399 7.1478 6C7.1478 6.06601 7.13473 6.13136 7.10935 6.19229C7.08396 6.25322 7.04677 6.30852 6.9999 6.355L4.6999 8.645C4.60575 8.73849 4.55259 8.86555 4.55212 8.99823C4.55165 9.13091 4.60391 9.25835 4.6974 9.3525C4.79089 9.44665 4.91795 9.49981 5.05063 9.50028C5.18332 9.50075 5.31075 9.44849 5.4049 9.355L7.6999 7.06C7.9808 6.77875 8.13858 6.3975 8.13858 6C8.13858 5.6025 7.9808 5.22125 7.6999 4.94Z" fill="#637684"/>
</svg>
