<svg width="16" height="16" viewBox="0 0 16 16" fill="none" xmlns="http://www.w3.org/2000/svg">
<g clip-path="url(#clip0_0_799)">
<path d="M3.33323 9.33334C3.70142 9.33334 3.9999 9.03486 3.9999 8.66667C3.9999 8.29848 3.70142 8 3.33323 8C2.96504 8 2.66656 8.29848 2.66656 8.66667C2.66656 9.03486 2.96504 9.33334 3.33323 9.33334Z" fill="#732CEC"/>
<path d="M0.666667 6.66677C1.03486 6.66677 1.33333 6.36829 1.33333 6.0001C1.33333 5.63191 1.03486 5.33344 0.666667 5.33344C0.298477 5.33344 0 5.63191 0 6.0001C0 6.36829 0.298477 6.66677 0.666667 6.66677Z" fill="#732CEC"/>
<path d="M3.33323 3.9999C3.70142 3.9999 3.9999 3.70142 3.9999 3.33323C3.9999 2.96504 3.70142 2.66656 3.33323 2.66656C2.96504 2.66656 2.66656 2.96504 2.66656 3.33323C2.66656 3.70142 2.96504 3.9999 3.33323 3.9999Z" fill="#732CEC"/>
<path d="M0.666667 1.33333C1.03486 1.33333 1.33333 1.03486 1.33333 0.666667C1.33333 0.298477 1.03486 0 0.666667 0C0.298477 0 0 0.298477 0 0.666667C0 1.03486 0.298477 1.33333 0.666667 1.33333Z" fill="#732CEC"/>
<path d="M15.3332 9.33334C15.7014 9.33334 15.9999 9.03486 15.9999 8.66667C15.9999 8.29848 15.7014 8 15.3332 8C14.965 8 14.6666 8.29848 14.6666 8.66667C14.6666 9.03486 14.965 9.33334 15.3332 9.33334Z" fill="#732CEC"/>
<path d="M12.6667 6.66677C13.0349 6.66677 13.3333 6.36829 13.3333 6.0001C13.3333 5.63191 13.0349 5.33344 12.6667 5.33344C12.2985 5.33344 12 5.63191 12 6.0001C12 6.36829 12.2985 6.66677 12.6667 6.66677Z" fill="#732CEC"/>
<path d="M15.3332 3.9999C15.7014 3.9999 15.9999 3.70142 15.9999 3.33323C15.9999 2.96504 15.7014 2.66656 15.3332 2.66656C14.965 2.66656 14.6666 2.96504 14.6666 3.33323C14.6666 3.70142 14.965 3.9999 15.3332 3.9999Z" fill="#732CEC"/>
<path d="M12.6667 1.33333C13.0349 1.33333 13.3333 1.03486 13.3333 0.666667C13.3333 0.298477 13.0349 0 12.6667 0C12.2985 0 12 0.298477 12 0.666667C12 1.03486 12.2985 1.33333 12.6667 1.33333Z" fill="#732CEC"/>
<path d="M9.33324 15.9999C9.70143 15.9999 9.99991 15.7014 9.99991 15.3332C9.99991 14.965 9.70143 14.6666 9.33324 14.6666C8.96504 14.6666 8.66656 14.965 8.66656 15.3332C8.66656 15.7014 8.96504 15.9999 9.33324 15.9999Z" fill="#732CEC"/>
<path d="M6.66667 13.3333C7.03485 13.3333 7.33333 13.0349 7.33333 12.6667C7.33333 12.2985 7.03485 12 6.66667 12C6.29848 12 6 12.2985 6 12.6667C6 13.0349 6.29848 13.3333 6.66667 13.3333Z" fill="#732CEC"/>
<path d="M9.33324 10.6668C9.70143 10.6668 9.99991 10.3683 9.99991 10.0001C9.99991 9.63191 9.70143 9.33344 9.33324 9.33344C8.96504 9.33344 8.66656 9.63191 8.66656 10.0001C8.66656 10.3683 8.96504 10.6668 9.33324 10.6668Z" fill="#732CEC"/>
<path d="M6.66667 7.99991C7.03485 7.99991 7.33333 7.70143 7.33333 7.33324C7.33333 6.96504 7.03485 6.66656 6.66667 6.66656C6.29848 6.66656 6 6.96504 6 7.33324C6 7.70143 6.29848 7.99991 6.66667 7.99991Z" fill="#732CEC"/>
<path d="M10.0001 2C9.64647 2 9.30733 1.85952 9.05729 1.60948C8.80724 1.35943 8.66676 1.02029 8.66676 0.666667C8.66676 0.489856 8.59652 0.320286 8.4715 0.195262C8.34648 0.0702379 8.17691 0 8.0001 0C7.82329 0 7.65372 0.0702379 7.52869 0.195262C7.40367 0.320286 7.33343 0.489856 7.33343 0.666667C7.33343 1.02029 7.19296 1.35943 6.94291 1.60948C6.69286 1.85952 6.35372 2 6.0001 2C5.82329 2 5.65372 2.07024 5.5287 2.19526C5.40367 2.32029 5.33344 2.48986 5.33344 2.66667C5.33344 2.84348 5.40367 3.01305 5.5287 3.13807C5.65372 3.2631 5.82329 3.33333 6.0001 3.33333C6.35372 3.33333 6.69286 3.47381 6.94291 3.72386C7.19296 3.97391 7.33343 4.31305 7.33343 4.66667C7.33343 4.84348 7.40367 5.01305 7.52869 5.13807C7.65372 5.2631 7.82329 5.33333 8.0001 5.33333C8.17691 5.33333 8.34648 5.2631 8.4715 5.13807C8.59652 5.01305 8.66676 4.84348 8.66676 4.66667C8.66676 4.31305 8.80724 3.97391 9.05729 3.72386C9.30733 3.47381 9.64647 3.33333 10.0001 3.33333C10.1769 3.33333 10.3465 3.2631 10.4715 3.13807C10.5965 3.01305 10.6668 2.84348 10.6668 2.66667C10.6668 2.48986 10.5965 2.32029 10.4715 2.19526C10.3465 2.07024 10.1769 2 10.0001 2Z" fill="#732CEC"/>
<path d="M4.66667 12.6666C4.31305 12.6666 3.97391 12.5261 3.72386 12.276C3.47381 12.026 3.33333 11.6869 3.33333 11.3332C3.33333 11.1564 3.2631 10.9869 3.13807 10.8618C3.01305 10.7368 2.84348 10.6666 2.66667 10.6666C2.48986 10.6666 2.32029 10.7368 2.19526 10.8618C2.07024 10.9869 2 11.1564 2 11.3332C2 11.6869 1.85952 12.026 1.60948 12.276C1.35943 12.5261 1.02029 12.6666 0.666667 12.6666C0.489856 12.6666 0.320286 12.7368 0.195262 12.8618C0.0702379 12.9868 0 13.1564 0 13.3332C0 13.51 0.0702379 13.6796 0.195262 13.8046C0.320286 13.9297 0.489856 13.9999 0.666667 13.9999C1.02029 13.9999 1.35943 14.1404 1.60948 14.3904C1.85952 14.6405 2 14.9796 2 15.3332C2 15.51 2.07024 15.6796 2.19526 15.8046C2.32029 15.9297 2.48986 15.9999 2.66667 15.9999C2.84348 15.9999 3.01305 15.9297 3.13807 15.8046C3.2631 15.6796 3.33333 15.51 3.33333 15.3332C3.33333 14.9796 3.47381 14.6405 3.72386 14.3904C3.97391 14.1404 4.31305 13.9999 4.66667 13.9999C4.84348 13.9999 5.01305 13.9297 5.13807 13.8046C5.2631 13.6796 5.33333 13.51 5.33333 13.3332C5.33333 13.1564 5.2631 12.9868 5.13807 12.8618C5.01305 12.7368 4.84348 12.6666 4.66667 12.6666Z" fill="#732CEC"/>
<path d="M15.3332 12.6666C14.9796 12.6666 14.6405 12.5261 14.3904 12.276C14.1404 12.026 13.9999 11.6869 13.9999 11.3332C13.9999 11.1564 13.9297 10.9869 13.8046 10.8618C13.6796 10.7368 13.51 10.6666 13.3332 10.6666C13.1564 10.6666 12.9868 10.7368 12.8618 10.8618C12.7368 10.9869 12.6666 11.1564 12.6666 11.3332C12.6666 11.6869 12.5261 12.026 12.276 12.276C12.026 12.5261 11.6869 12.6666 11.3332 12.6666C11.1564 12.6666 10.9869 12.7368 10.8618 12.8618C10.7368 12.9868 10.6666 13.1564 10.6666 13.3332C10.6666 13.51 10.7368 13.6796 10.8618 13.8046C10.9869 13.9297 11.1564 13.9999 11.3332 13.9999C11.6869 13.9999 12.026 14.1404 12.276 14.3904C12.5261 14.6405 12.6666 14.9796 12.6666 15.3332C12.6666 15.51 12.7368 15.6796 12.8618 15.8046C12.9868 15.9297 13.1564 15.9999 13.3332 15.9999C13.51 15.9999 13.6796 15.9297 13.8046 15.8046C13.9297 15.6796 13.9999 15.51 13.9999 15.3332C13.9999 14.9796 14.1404 14.6405 14.3904 14.3904C14.6405 14.1404 14.9796 13.9999 15.3332 13.9999C15.51 13.9999 15.6796 13.9297 15.8046 13.8046C15.9297 13.6796 15.9999 13.51 15.9999 13.3332C15.9999 13.1564 15.9297 12.9868 15.8046 12.8618C15.6796 12.7368 15.51 12.6666 15.3332 12.6666Z" fill="#732CEC"/>
</g>
<defs>
<clipPath id="clip0_0_799">
<rect width="16" height="16" fill="white"/>
</clipPath>
</defs>
</svg>
