<svg width="16" height="16" viewBox="0 0 16 16" fill="none" xmlns="http://www.w3.org/2000/svg">
<path d="M12.7075 5.23599C12.6146 5.14306 12.5043 5.06935 12.383 5.01905C12.2616 4.96876 12.1315 4.94287 12.0001 4.94287C11.8688 4.94287 11.7387 4.96876 11.6173 5.01905C11.4959 5.06935 11.3857 5.14306 11.2928 5.23599L8.23548 8.29266C8.17297 8.35515 8.0882 8.39025 7.99981 8.39025C7.91142 8.39025 7.82665 8.35515 7.76415 8.29266L4.70748 5.23599C4.51997 5.04839 4.26562 4.94297 4.00038 4.94291C3.73514 4.94284 3.48074 5.04815 3.29315 5.23566C3.10555 5.42317 3.00012 5.67752 3.00006 5.94276C3 6.20799 3.1053 6.46239 3.29281 6.64999L6.35015 9.70732C6.56682 9.92402 6.82405 10.0959 7.10716 10.2132C7.39027 10.3305 7.69371 10.3908 8.00015 10.3908C8.30658 10.3908 8.61002 10.3305 8.89313 10.2132C9.17624 10.0959 9.43347 9.92402 9.65015 9.70732L12.7075 6.64999C12.8949 6.46246 13.0003 6.20816 13.0003 5.94299C13.0003 5.67783 12.8949 5.42352 12.7075 5.23599Z" fill="#C8D3DE"/>
</svg>
