<svg width="16" height="16" viewBox="0 0 16 16" fill="none" xmlns="http://www.w3.org/2000/svg">
<path d="M12 14C13.1046 14 14 13.1046 14 12C14 10.8954 13.1046 10 12 10C10.8954 10 10 10.8954 10 12C10 13.1046 10.8954 14 12 14Z" stroke="#9BA9B8" stroke-linecap="round" stroke-linejoin="round"/>
<path d="M6.86671 13.3333H2.66671C2.31309 13.3333 1.97395 13.1929 1.7239 12.9428C1.47385 12.6928 1.33337 12.3536 1.33337 12V3.33334C1.33337 2.97971 1.47385 2.64058 1.7239 2.39053C1.97395 2.14048 2.31309 2 2.66671 2H5.26671C5.4897 1.99782 5.70968 2.0516 5.90651 2.15642C6.10334 2.26124 6.27073 2.41375 6.39337 2.6L6.93337 3.4C7.05478 3.58436 7.22006 3.73568 7.41437 3.84041C7.60869 3.94513 7.82597 3.99997 8.04671 4H13.3334C13.687 4 14.0261 4.14048 14.2762 4.39053C14.5262 4.64058 14.6667 4.97971 14.6667 5.33334V7.53334" stroke="#9BA9B8" stroke-linecap="round" stroke-linejoin="round"/>
<path d="M14.4667 12.9333L13.8667 12.7333" stroke="#9BA9B8" stroke-linecap="round" stroke-linejoin="round"/>
<path d="M10.1333 11.2667L9.53333 11.0667" stroke="#9BA9B8" stroke-linecap="round" stroke-linejoin="round"/>
<path d="M11.0667 14.4666L11.2667 13.8666" stroke="#9BA9B8" stroke-linecap="round" stroke-linejoin="round"/>
<path d="M12.7333 10.1333L12.9333 9.53333" stroke="#9BA9B8" stroke-linecap="round" stroke-linejoin="round"/>
<path d="M13.0667 14.4667L12.8 13.8" stroke="#9BA9B8" stroke-linecap="round" stroke-linejoin="round"/>
<path d="M11.2 10.2L10.9333 9.53333" stroke="#9BA9B8" stroke-linecap="round" stroke-linejoin="round"/>
<path d="M9.53333 13.0667L10.2 12.8" stroke="#9BA9B8" stroke-linecap="round" stroke-linejoin="round"/>
<path d="M13.8 11.2L14.4667 10.9333" stroke="#9BA9B8" stroke-linecap="round" stroke-linejoin="round"/>
</svg>
