<svg width="16" height="16" viewBox="0 0 16 16" fill="none" xmlns="http://www.w3.org/2000/svg">
<path d="M6.70998 8.32869L2.58998 9.20735C2.43006 9.24206 2.2629 9.21241 2.12467 9.12483C1.98644 9.03725 1.88824 8.89877 1.85131 8.73935L1.49331 7.30602C1.45122 7.13332 1.47512 6.95114 1.56033 6.79514C1.64554 6.63915 1.78592 6.52059 1.95398 6.46269L10.9566 3.50269" stroke="#86949F" stroke-width="1.5" stroke-linecap="round" stroke-linejoin="round"/>
<path d="M9.04004 7.83133L11.928 7.21533" stroke="#86949F" stroke-width="1.5" stroke-linecap="round" stroke-linejoin="round"/>
<path d="M10.6667 14L8.59668 9.85999" stroke="#86949F" stroke-width="1.5" stroke-linecap="round" stroke-linejoin="round"/>
<path d="M10.99 3.95998C10.9043 3.61696 10.9583 3.25396 11.1402 2.95079C11.3221 2.64762 11.617 2.42911 11.96 2.34331L12.6866 2.16198C12.858 2.11922 13.0394 2.14624 13.1909 2.23712C13.3424 2.32799 13.4517 2.47528 13.4946 2.64664L14.5046 6.68664C14.5476 6.85815 14.5207 7.0397 14.4298 7.19135C14.3389 7.343 14.1915 7.45234 14.02 7.49531L13.2933 7.67664C12.9503 7.76234 12.5873 7.7083 12.2841 7.52639C11.9809 7.34449 11.7624 7.04963 11.6766 6.70664L10.99 3.95998Z" stroke="#86949F" stroke-width="1.5" stroke-linecap="round" stroke-linejoin="round"/>
<path d="M4.10535 5.75531L4.84801 8.72598" stroke="#86949F" stroke-width="1.5" stroke-linecap="round" stroke-linejoin="round"/>
<path d="M5.33337 14L7.40337 9.85999" stroke="#86949F" stroke-width="1.5" stroke-linecap="round" stroke-linejoin="round"/>
<path d="M7.99996 9.99998C8.73634 9.99998 9.33329 9.40303 9.33329 8.66665C9.33329 7.93027 8.73634 7.33331 7.99996 7.33331C7.26358 7.33331 6.66663 7.93027 6.66663 8.66665C6.66663 9.40303 7.26358 9.99998 7.99996 9.99998Z" stroke="#86949F" stroke-width="1.5" stroke-linecap="round" stroke-linejoin="round"/>
</svg>
