<svg width="16" height="16" viewBox="0 0 16 16" fill="none" xmlns="http://www.w3.org/2000/svg">
<path d="M12.6667 2H3.33333C2.59695 2 2 2.59695 2 3.33333V12.6667C2 13.403 2.59695 14 3.33333 14H12.6667C13.403 14 14 13.403 14 12.6667V3.33333C14 2.59695 13.403 2 12.6667 2Z" stroke="#9BA9B8" stroke-linecap="round" stroke-linejoin="round"/>
<path d="M8 8.66669C9.10457 8.66669 10 7.77126 10 6.66669C10 5.56212 9.10457 4.66669 8 4.66669C6.89543 4.66669 6 5.56212 6 6.66669C6 7.77126 6.89543 8.66669 8 8.66669Z" stroke="#9BA9B8" stroke-linecap="round" stroke-linejoin="round"/>
<path d="M4.66663 14V12.6666C4.66663 12.313 4.8071 11.9739 5.05715 11.7238C5.3072 11.4738 5.64634 11.3333 5.99996 11.3333H9.99996C10.3536 11.3333 10.6927 11.4738 10.9428 11.7238C11.1928 11.9739 11.3333 12.313 11.3333 12.6666V14" stroke="#9BA9B8" stroke-linecap="round" stroke-linejoin="round"/>
</svg>
