<svg width="16" height="16" viewBox="0 0 16 16" fill="none" xmlns="http://www.w3.org/2000/svg">
<path d="M10.1333 2C10.485 2.00501 10.8205 2.14878 11.0667 2.4L13.6 4.93333C13.8512 5.17951 13.995 5.51497 14 5.86667V12.6667C14 13.0203 13.8595 13.3594 13.6095 13.6095C13.3594 13.8595 13.0203 14 12.6667 14H3.33333C2.97971 14 2.64057 13.8595 2.39052 13.6095C2.14048 13.3594 2 13.0203 2 12.6667V3.33333C2 2.97971 2.14048 2.64057 2.39052 2.39052C2.64057 2.14048 2.97971 2 3.33333 2H10.1333Z" stroke="#F7FBFE" stroke-width="1.5" stroke-linecap="round" stroke-linejoin="round"/>
<path d="M11.3333 14V9.33332C11.3333 9.15651 11.2631 8.98694 11.138 8.86192C11.013 8.73689 10.8434 8.66666 10.6666 8.66666H5.33329C5.15648 8.66666 4.98691 8.73689 4.86189 8.86192C4.73686 8.98694 4.66663 9.15651 4.66663 9.33332V14" stroke="#F7FBFE" stroke-width="1.5" stroke-linecap="round" stroke-linejoin="round"/>
<path d="M4.66663 2V4.66667C4.66663 4.84348 4.73686 5.01305 4.86189 5.13807C4.98691 5.2631 5.15648 5.33333 5.33329 5.33333H9.99996" stroke="#F7FBFE" stroke-linecap="round" stroke-linejoin="round"/>
</svg>
