<svg width="14" height="14" viewBox="0 0 14 14" fill="none" xmlns="http://www.w3.org/2000/svg">
<path d="M9.33341 12.25V11.0833C9.33341 10.4645 9.08758 9.871 8.65 9.43342C8.21241 8.99583 7.61892 8.75 7.00008 8.75H3.50008C2.88124 8.75 2.28775 8.99583 1.85017 9.43342C1.41258 9.871 1.16675 10.4645 1.16675 11.0833V12.25" stroke="#252E38" stroke-linecap="round" stroke-linejoin="round"/>
<path d="M5.25008 6.41667C6.53875 6.41667 7.58342 5.372 7.58342 4.08333C7.58342 2.79467 6.53875 1.75 5.25008 1.75C3.96142 1.75 2.91675 2.79467 2.91675 4.08333C2.91675 5.372 3.96142 6.41667 5.25008 6.41667Z" stroke="#252E38" stroke-linecap="round" stroke-linejoin="round"/>
<path d="M11.0833 4.66669V8.16669" stroke="black" stroke-linecap="round" stroke-linejoin="round"/>
<path d="M12.8333 6.41669H9.33325" stroke="black" stroke-linecap="round" stroke-linejoin="round"/>
</svg>
